<svg width="2966" height="2224" viewBox="0 0 2966 2224" fill="none" xmlns="http://www.w3.org/2000/svg">
<rect width="2966" height="2224" fill="#F8F8F8"/>
<g clip-path="url(#clip0_15_3)">
<rect x="1483" y="940" width="58" height="104" fill="#D9D9D9"/>
<rect x="1566" y="909" width="231" height="135" fill="#D9D9D9"/>
<rect x="1628" y="450" width="563" height="169" fill="#D9D9D9"/>
<rect x="723" y="453" width="575" height="166" fill="#D9D9D9"/>
<rect x="1044" y="875" width="59" height="237" fill="#D9D9D9"/>
<rect x="1103" y="930" width="69" height="114" fill="#D9D9D9"/>
<rect x="1344" y="1250" width="222" height="36" fill="#D9D9D9"/>
<rect x="1355" y="1379" width="211" height="76" fill="#D9D9D9"/>
<rect x="1337" y="1811" width="282" height="114" fill="#D9D9D9"/>
<rect x="1517" y="1342" width="145" height="92" fill="#D9D9D9"/>
<rect x="1381" y="1112" width="136" height="115" fill="#D9D9D9"/>
<rect x="2070" y="1044" width="276" height="276" fill="#D9D9D9"/>
<rect x="2328" y="413" width="183" height="272" fill="#D9D9D9"/>
<path d="M1409.73 185.6C1405.33 186.533 1404 187.467 1404 189.467C1404 191.6 1404.93 192 1409.33 192H1414.67V228H1409.33C1404.53 228 1404 228.267 1404 231.333V234.667H1434.67V231.333C1434.67 228.267 1434.13 228 1429.33 228H1424V184L1419.73 184.133C1417.33 184.267 1412.8 184.8 1409.73 185.6Z" fill="black"/>
<path d="M1420.4 287.467C1420 288.667 1420 302.133 1420.4 317.467L1421.2 345.333H1408.93C1402.13 345.333 1364.8 345.867 1326 346.667C1287.07 347.333 1204.93 348.933 1143.33 350C960.4 353.333 754.133 357.2 690 358.667C657.067 359.467 608.667 360.4 582.667 360.8L535.333 361.733L530 365.333C527.067 367.467 521.067 371.333 516.667 374C492.8 388.933 468.8 415.6 457.333 440.133C454.8 445.467 452.267 450.267 451.733 450.667C451.2 451.067 449.333 456.667 447.467 463.067L444 474.8L445.333 582.4C446 641.6 447.2 748.533 448 820C448.8 891.467 450 998 450.8 1056.53C451.467 1115.2 451.6 1163.47 451.067 1164C450.533 1164.53 438.667 1167.87 424.667 1171.33C396.533 1178.53 394.267 1179.33 394.933 1182.27C395.867 1187.2 399.067 1186.93 425.333 1180.27C439.6 1176.67 451.467 1173.73 451.6 1173.87C451.733 1174 452.4 1213.07 453.067 1260.8C454 1342.67 454.267 1347.6 456.667 1352.67C458.133 1355.6 459.733 1358.27 460.133 1358.67C460.533 1359.07 464.533 1366.8 468.933 1376C482.933 1404.8 498.533 1426 519.733 1444.8L530.8 1454.67L615.067 1454.8C661.467 1454.93 762.133 1455.47 838.933 1455.87L978.667 1456.67L950.267 1468.53C670.533 1586 696.667 1574.67 696.667 1578.67C696.667 1580.93 697.467 1582.13 699.333 1582.4C700.8 1582.53 712.533 1578.27 725.333 1572.8C738.133 1567.47 788.267 1546.27 836.667 1526C885.067 1505.6 942.267 1481.6 963.867 1472.53L1003.07 1456L1104.53 1456.27L1205.87 1456.67L1235.6 1494.67C1252 1515.6 1265.2 1533.47 1264.93 1534.4C1264.8 1535.33 1248.8 1545.33 1229.33 1556.53C1209.87 1567.87 1192.93 1578 1191.6 1579.2C1189.73 1580.93 1189.6 1582 1190.67 1584C1192.27 1587.07 1195.6 1587.47 1199.33 1584.8C1203.2 1582.27 1264 1546.67 1264.8 1546.67C1265.07 1546.67 1265.33 1645.47 1265.33 1766.27C1265.33 1941.33 1265.6 1986.13 1266.93 1987.47C1268.27 1988.67 1317.2 1989.47 1468.27 1990.67C1578 1991.6 1668.8 1992 1670.13 1991.47C1672.13 1990.67 1672.27 1987.07 1671.73 1943.33L1671.07 1896H1714.67C1761.07 1896 1762.27 1895.87 1761.07 1889.73C1760.67 1887.47 1758 1887.33 1715.6 1887.47L1670.67 1887.73L1670.53 1828.8C1670.53 1796.53 1670 1715.33 1669.33 1648.67L1668.27 1527.33L1673.6 1516.67C1676.53 1510.8 1679.2 1505.87 1679.33 1505.6C1679.6 1505.33 1704.93 1522.67 1735.6 1544.13C1792.13 1583.87 1798 1587.2 1798 1580.13C1798 1577.47 1789.47 1570.93 1742.13 1537.87C1711.33 1516.27 1685.6 1498.13 1684.93 1497.47C1684.27 1496.8 1687.6 1488.8 1693.47 1477.2C1698.67 1466.67 1703.33 1457.73 1703.6 1457.33C1704 1456.93 1765.73 1456.93 1840.8 1457.2L1977.47 1457.6L2065.73 1504.8C2114.27 1530.67 2155.33 1552 2157.07 1552C2161.2 1552 2162.27 1548.4 2159.2 1545.47C2157.87 1544.13 2120.93 1524 2077.33 1500.8C2033.73 1477.47 1997.47 1458 1996.67 1457.2C1996 1456.53 2054.8 1456 2155.07 1456C2323.6 1456 2321.2 1456.13 2334 1450.13C2336.27 1449.07 2341.6 1446.8 2346.13 1444.93C2363.6 1437.87 2387.87 1421.47 2405.2 1404.8C2415.47 1394.8 2432.8 1373.47 2434.8 1368.27C2435.47 1366.53 2437.73 1362.67 2439.73 1359.6C2441.87 1356.53 2444.67 1350.93 2446.13 1347.33C2448.53 1340.93 2448.67 1337.07 2448.13 1249.6L2447.73 1158.4L2477.07 1159.33C2510.93 1160.53 2513.73 1160.13 2513.07 1154.93L2512.67 1151.33L2479.73 1150.93L2446.67 1150.67V1126.27C2446.67 1078.27 2444 859.467 2441.87 730C2438 486 2438 477.333 2439.33 477.2C2440.13 477.067 2451.73 476.667 2465.33 476.133L2490 475.333V468.667L2463.73 468.267L2437.33 468V445.867C2437.33 420.667 2437.33 420.667 2425.47 402.8C2409.6 378.8 2385.47 357.6 2359.33 344.667C2351.33 340.667 2343.87 336.667 2342.93 335.867C2342 335.067 2338 333.333 2334.13 332C2327.6 329.6 2323.6 329.6 2262 330.667C2226 331.333 2153.47 332.533 2100.67 333.333C2047.87 334.133 1960.53 335.6 1906.67 336.667C1852.8 337.733 1770 339.2 1722.67 340C1675.33 340.667 1601.6 341.867 1558.67 342.667C1515.73 343.333 1469.33 344.133 1455.33 344.267L1430 344.667L1429.07 316.4C1428.67 300.933 1427.87 287.467 1427.33 286.8C1426 284.533 1421.33 285.067 1420.4 287.467ZM2332.27 340.8C2365.07 352.667 2406.13 387.2 2420 414.667C2426.93 428.4 2429.33 438.4 2429.33 453.6V468H2421.47C2411.47 468 2409.33 468.8 2409.33 472.667C2409.33 476.533 2411.47 477.333 2421.33 477.333H2429.07L2429.87 498.933C2430.27 510.933 2431.47 617.6 2432.67 736C2433.87 854.4 2435.33 977.733 2436 1010C2436.67 1042.27 2437.33 1086.93 2437.33 1109.33L2437.6 1150L2415.6 1150.4L2393.73 1150.67L2392.93 1129.73C2392.53 1118.13 2392.13 1068.67 2392.13 1019.73C2392.13 970.8 2391.73 930 2391.2 929.2C2390.8 928.4 2390.8 904.4 2391.33 876C2391.87 847.467 2392 823.6 2391.47 822.933C2391.07 822.267 2390.4 779.733 2390.13 728.533C2389.33 614.933 2386.93 451.6 2386 445.733C2385.6 443.333 2384.53 440.667 2383.6 439.733C2382.67 438.8 2380.8 435.467 2379.47 432.4C2378.13 429.333 2376.13 426.533 2375.2 426.133C2374.13 425.733 2373.33 424.533 2373.33 423.467C2373.33 422.4 2372.27 420.667 2370.93 419.733C2369.47 418.8 2367.73 416.667 2366.8 414.933C2364.8 411.2 2344.4 390.667 2342.67 390.667C2341.87 390.667 2340.67 389.467 2339.73 388C2338.8 386.533 2337.33 385.333 2336.4 385.333C2335.6 385.333 2334 384.267 2333.07 382.933C2332.13 381.733 2328.8 379.467 2325.73 378.133C2322.53 376.667 2320 375.2 2320 374.667C2320 374.267 2317.73 373.067 2315.07 372.133C2312.27 371.067 2309.33 369.467 2308.4 368.533C2307.33 367.6 2304.53 366.4 2302 365.867C2299.47 365.467 2297.33 364.267 2297.33 363.2C2297.33 361.467 2289.73 358.667 2285.07 358.667C2283.73 358.667 2282.67 358 2282.67 357.333C2282.67 356.533 2280 356 2276.67 356C2273.07 356 2270.67 356.667 2270.67 357.6C2270.67 358.667 2260.67 358.8 2230.67 358.133C2203.2 357.6 2190.67 357.733 2190.67 358.667C2190.67 359.6 2174.67 359.733 2139.73 359.2C2111.6 358.8 2050.53 359.067 2004 359.867C1871.2 362.133 1712.93 364.267 1647.07 364.4C1613.87 364.533 1586.67 365.067 1586.67 365.467C1586.67 366 1551.6 366.267 1508.67 366.133L1430.67 366V352H1442.4C1454.67 352 1554.4 350.267 1674.67 348C1792.67 345.733 1909.07 344 1943.33 344C1960.93 344 1996.67 343.333 2022.67 342.667C2048.67 342 2092.8 341.067 2120.67 340.533C2148.53 340 2192 339.2 2217.33 338.8C2242.67 338.267 2276.67 337.733 2292.93 337.6C2321.73 337.333 2322.8 337.467 2332.27 340.8ZM1421.47 366.267L1382.4 367.2C1360.93 367.733 1292.93 368.667 1231.33 369.333C1169.73 370.133 1089.6 371.333 1053.33 372C1017.07 372.8 967.2 373.333 942.667 373.2C918.133 373.2 896.933 373.467 895.467 374.133C894.133 374.667 876.933 374.8 857.2 374.4C832.533 373.867 821.333 374 821.333 375.067C821.333 376 810.667 376.133 786.667 375.6C767.6 375.067 752 375.2 752 375.733C752 376.267 712.933 376.8 665.067 376.8C593.6 377.067 577.867 377.333 576.8 378.8C576 379.867 573.6 381.6 571.333 382.667C569.2 383.733 566.133 385.733 564.8 386.933C563.333 388.267 561.333 389.333 560.4 389.333C559.333 389.333 558.267 390.133 557.867 391.2C557.467 392.267 556.133 393.467 554.933 393.867C551.6 394.933 548.267 397.467 543.2 402.267C540.8 404.667 538.133 406.667 537.467 406.667C536.8 406.667 534.267 409.067 531.733 412.133C529.333 415.067 525.867 419.2 524 421.333C522.133 423.333 519.467 426.667 518 428.533C516.533 430.533 514.4 433.2 513.2 434.533C512 435.867 510.267 438.8 509.2 441.067C508.133 443.467 506.933 445.333 506.533 445.333C506.133 445.333 504.667 448.133 503.333 451.6C502 455.2 500.133 458.8 499.2 459.733C498.267 460.667 497.067 463.467 496.533 466C496.133 468.533 495.2 470.667 494.667 470.667C491.333 470.667 490.933 492.933 491.333 640.667C491.733 808.667 493.2 994.667 494.133 996.267C494.4 996.667 494.267 1032.53 493.867 1075.6L492.933 1154.13L476.667 1158.27L460.267 1162.27L459.467 1094.13C458.933 1056.67 458 954 457.2 866C456.533 778 455.333 652 454.667 586C453.6 467.6 453.6 465.867 456.267 458C465.333 430.8 490.133 399.733 516.933 381.867C523.333 377.467 528.933 373.733 529.333 373.333C529.733 372.933 532.133 371.067 534.667 369.2L539.333 365.733L660 364.133C841.067 361.733 1145.73 357.067 1312 354C1363.73 353.067 1409.33 352.4 1413.33 352.533L1420.67 352.667L1421.47 366.267ZM2287.73 366.933C2291.47 367.733 2294.67 368.933 2294.67 369.467C2294.67 370 2296.8 371.2 2299.33 372C2301.87 372.8 2304 374 2304 374.533C2304 375.067 2306.67 376.533 2310 377.867C2313.33 379.333 2316 380.933 2316 381.6C2316 382.267 2317.47 383.333 2319.33 384C2321.2 384.667 2322.67 385.867 2322.67 386.533C2322.67 387.2 2323.73 388 2325.07 388.533C2328.53 389.6 2332.4 392.4 2334.4 394.933C2335.33 396.267 2336.8 397.333 2337.47 397.333C2338.27 397.333 2343.6 402.267 2349.33 408.267C2363.2 422.8 2363.2 422.933 2366.13 428.133C2367.6 430.667 2368.93 432.933 2369.33 433.333C2371.07 435.067 2374.67 442.667 2374.67 444.533C2374.67 445.733 2375.2 446.667 2375.73 446.667C2376.4 446.667 2377.6 449.867 2378.53 453.6C2380.67 462.4 2383.2 671.067 2381.87 728.133C2381.33 749.2 2381.33 766.933 2381.87 767.733C2382.27 768.533 2382.93 825.733 2383.33 894.933C2383.73 964 2384.53 1049.47 2385.07 1084.67C2385.73 1119.87 2385.87 1149.2 2385.6 1149.87C2385.2 1150.53 2347.6 1150.53 2298.53 1150C2230.4 1149.2 2211.6 1149.33 2210 1150.67C2207.33 1152.8 2207.47 1156.8 2210.13 1157.87C2211.33 1158.27 2250.67 1158.67 2297.73 1158.67C2344.8 1158.67 2384.13 1159.2 2385.2 1159.87C2386.67 1160.8 2386.8 1171.07 2386 1222.4C2385.47 1258.53 2385.47 1284 2386.27 1284.4C2388.8 1286 2384.13 1328 2381.33 1328C2380.67 1328 2379.47 1330.13 2378.67 1332.67C2377.87 1335.2 2376.67 1337.33 2376.13 1337.33C2375.6 1337.33 2374.27 1339.73 2373.33 1342.8C2372.27 1345.87 2370.67 1348.53 2369.73 1348.93C2368.8 1349.33 2368 1350.4 2368 1351.33C2368 1355.33 2335.07 1388.4 2325.47 1394.13C2323.2 1395.47 2321.33 1396.93 2321.33 1397.47C2321.33 1397.87 2318.93 1399.33 2316 1400.67C2313.07 1402 2310.67 1403.47 2310.67 1403.87C2310.67 1404.4 2308 1405.87 2304.67 1407.2C2301.33 1408.67 2298.67 1410.13 2298.67 1410.67C2298.67 1411.2 2295.2 1412.67 2291.07 1414C2286.8 1415.33 2282.93 1416.93 2282.53 1417.6C2282.13 1418.27 2276.4 1419.73 2269.87 1420.93C2263.33 1422.27 2257.73 1423.6 2257.33 1424.13C2256.93 1424.67 2208.4 1424.4 2149.33 1423.73C2090.27 1422.93 2016.4 1422.13 1985.07 1421.87L1928.13 1421.33L1696.13 1297.47C1568.53 1229.33 1463.33 1173.33 1462.27 1172.93C1461.2 1172.53 1459.2 1173.07 1457.73 1174C1455.87 1175.47 1455.6 1176.4 1456.8 1178.27C1457.6 1179.6 1559.47 1234.67 1683.07 1300.67C1806.8 1366.53 1907.73 1420.8 1907.47 1421.07C1907.2 1421.33 1848.67 1421.07 1777.47 1420.53L1648 1419.6V1414C1648 1411.07 1647.33 1407.87 1646.4 1406.93C1645.33 1405.87 1636.8 1405.6 1614.4 1406.27C1596.4 1406.8 1584 1406.53 1584 1405.87C1584 1398.53 1563.33 1252.4 1562.13 1251.73C1561.33 1251.2 1511.07 1250.67 1450.4 1250.67H1340L1338.27 1253.6C1337.2 1255.33 1335.07 1267.47 1333.47 1280.67C1329.73 1311.6 1329.6 1312.4 1327.07 1311.47C1326 1311.07 1319.07 1313.33 1311.6 1316.53C1304.13 1319.73 1283.07 1328.67 1264.67 1336.4C1246.4 1344.13 1196.8 1364.93 1154.67 1382.67L1078 1414.93L917.333 1414.13C828.933 1413.73 715.467 1412.93 665.067 1412.53C574.533 1411.6 573.6 1411.6 570.267 1408.8C568.4 1407.33 565.067 1404.53 562.667 1402.67C556 1397.47 552 1393.07 552 1391.2C552 1390.13 551.467 1389.33 550.933 1389.33C549.2 1389.33 540 1379.73 540 1378.13C540 1377.33 538.8 1375.87 537.333 1374.93C535.867 1374 534.667 1372.4 534.667 1371.33C534.667 1370.27 533.867 1368.93 532.933 1368.4C532 1367.87 530.133 1365.07 528.667 1362.27C527.2 1359.6 525.733 1357.33 525.333 1357.33C524.8 1357.33 523.333 1354.8 522 1351.6C520.667 1348.53 518.8 1345.33 518 1344.53C517.2 1343.73 515.733 1340.4 514.667 1337.2C513.6 1334 512.4 1331.07 511.867 1330.67C510.667 1329.87 506.667 1317.87 506.667 1315.33C506.667 1314.27 506.133 1313.33 505.467 1313.33C502.667 1313.33 501.467 1291.6 500.667 1228.4C499.733 1164.13 499.867 1161.6 502.267 1160.8C504.533 1160.13 581.2 1140.53 836.533 1075.33C895.867 1060.27 945.2 1048.13 946.133 1048.53C947.6 1049.07 948 1057.33 948 1093.33C948 1137.33 948 1137.47 951.2 1143.73C955.733 1152.53 969.067 1163.87 980 1168C982.533 1168.93 985.467 1170.4 986.4 1171.07C987.333 1171.87 1006.13 1172 1036.4 1171.33L1084.67 1170.4L1089.6 1177.2C1095.07 1184.53 1102 1189.2 1114.13 1193.47C1122 1196.4 1122.27 1196.4 1246.67 1196C1351.6 1195.87 1371.6 1195.47 1373.47 1193.87C1374.53 1192.8 1376.93 1187.6 1378.53 1182.27L1381.73 1172.4L1409.73 1171.6C1425.2 1171.07 1457.07 1170.67 1480.8 1170.67H1523.87L1525.33 1178.27C1526.13 1182.53 1527.07 1187.6 1527.47 1189.6C1527.87 1191.6 1528.67 1193.6 1529.07 1193.87C1530.27 1194.67 1726.4 1190.8 1730.13 1190C1736.4 1188.67 1749.47 1178.27 1754.8 1170.53L1760.13 1162.67H1823.6L1833.2 1157.87C1844 1152.4 1856.4 1141.2 1859.33 1134.13C1860.93 1130.27 1861.33 1120.13 1861.33 1076V1022.67H1871.73C1877.33 1022.67 1890.53 1022.27 1901.07 1021.73L1920 1020.93V1041.07C1920 1057.07 1920.4 1061.6 1922 1063.07C1924.53 1065.73 1928.93 1064.53 1929.87 1060.93C1930.93 1057.07 1930.8 900.133 1929.87 896.267C1929.07 893.333 1926.27 892.533 1922.13 894.133C1920.27 894.8 1920 898.133 1920 916.533V938L1890.93 938.533L1861.73 938.933L1860.8 904C1860.13 880.133 1860.27 868.533 1861.33 867.467C1862 866.8 1889.87 851.067 1923.07 832.667C1976.8 802.8 1983.33 798.8 1983.33 795.867C1983.33 793.6 1982.53 792.533 1980.67 792.267C1979.07 792 1954 805.2 1920.27 824C1888.53 841.6 1861.87 856 1861.07 856C1860.13 856 1859.87 852.4 1860.4 844.4C1861.47 826.8 1857.07 814.533 1845.07 801.867C1834.8 790.933 1831.73 790.133 1804.27 791.867C1791.73 792.667 1776.4 793.333 1770.27 793.333H1759.2L1754.53 786.267C1748.93 778 1739.2 770.267 1730 766.8C1723.6 764.4 1720.53 764.267 1669.33 765.333C1639.6 766 1576.13 766.933 1528.4 767.333C1455.47 768.133 1441.33 768 1440.8 766.533C1440.53 765.467 1438.4 687.6 1436.13 593.333C1433.73 499.067 1431.47 411.067 1431.07 397.6L1430.27 373.333L1451.07 374.133C1467.33 374.933 1472 374.667 1472 373.467C1472 372.133 1480.8 372 1513.87 372.8C1543.33 373.467 1555.87 373.333 1556.53 372.267C1557.07 371.2 1566.67 371.067 1587.73 371.6C1604.4 372 1682.53 371.333 1761.33 370.133C1840.13 369.067 1943.47 367.867 1990.93 367.733C2038.67 367.467 2077.33 366.8 2077.33 366.133C2077.33 365.6 2092.93 365.2 2112 365.6C2131.07 365.867 2146.67 365.6 2146.67 364.933C2146.67 363.333 2279.33 365.067 2287.73 366.933ZM1421.87 381.6C1422.93 394 1432 767.067 1431.33 767.867C1430.93 768.133 1365.47 769.2 1285.6 770.133C1205.87 771.067 1136.53 772.133 1131.33 772.533C1115.2 773.6 1102.13 779.6 1085.33 793.333L1078 799.333L981.867 800.667L972.933 805.067C962.267 810.267 955.2 816.8 949.867 826C946 832.533 946 833.067 945.6 855.867L945.067 878.933L941.6 878.267C939.6 877.867 900.133 869.067 853.867 858.8C807.6 848.4 768.133 840 766.133 840C763.333 840 762.667 840.667 762.667 843.2C762.667 845.067 763.2 846.8 763.733 847.2C764.4 847.6 805.333 856.933 854.667 868C904 878.933 944.667 888.267 945.067 888.667C945.333 888.933 946 922.667 946.4 963.6L947.067 1038.13L725.867 1094.4C604.267 1125.47 503.6 1151.2 502.267 1151.47C500 1152.27 499.867 1150.27 500.267 1109.6C500.533 1086.13 500.4 1067.07 500 1067.33C499.6 1067.6 499.333 976.133 499.467 864.267C499.467 752.267 499.333 660.133 498.933 659.6C498 657.6 498.267 478.133 499.2 472.267C499.733 469.2 500.667 466.667 501.2 466.667C501.733 466.667 502.933 464 503.867 460.667C504.8 457.333 506 454.667 506.533 454.667C507.067 454.667 508.667 452.133 510 449.067C511.333 445.867 513.6 442.267 514.933 440.8C516.267 439.333 517.333 437.467 517.333 436.8C517.333 436 518.533 434.533 520 433.6C521.467 432.667 522.667 431.333 522.667 430.533C522.667 429.867 528.8 423.333 536.4 416C554.4 398.533 554.8 398.133 560.533 395.467C563.2 394.267 565.333 392.8 565.333 392.267C565.333 391.733 567.2 390.533 569.467 389.467C571.6 388.533 574.8 386.267 576.4 384.667L579.333 381.6L706.267 381.067C778.8 380.8 833.333 380.133 833.333 379.467C833.333 378.8 853.333 378.667 880.667 379.333C912.8 380 928 379.867 928 378.933C928 378 940.133 377.733 965.067 378.267C985.333 378.667 1051.87 378.267 1112.67 377.333C1173.6 376.4 1258.13 375.2 1300.67 374.8C1343.2 374.267 1387.73 373.733 1399.6 373.6L1421.07 373.2L1421.87 381.6ZM1729.07 778.267C1736.8 781.867 1747.6 793.467 1748.67 799.2C1750 805.6 1752.67 806.933 1761.47 805.333C1765.47 804.533 1781.6 803.467 1797.33 802.933C1830.67 801.6 1832 801.867 1840.27 812.8C1847.2 821.867 1848.93 828.667 1849.33 847.467L1849.47 863.467L1845.73 865.333C1843.73 866.4 1841.6 867.467 1841.07 867.733C1840.4 868 1840 859.467 1840 848.933C1840 830 1839.87 829.467 1836.53 825.467C1831.2 819.067 1826.53 816.267 1816.53 813.733C1810.27 812 1805.47 811.467 1801.33 812.133C1798 812.667 1784.53 813.467 1771.33 814L1747.33 814.933L1745.47 808.8C1743.33 801.467 1735.2 791.867 1728.53 788.667C1723.87 786.533 1717.2 786.4 1626.8 787.2C1573.6 787.6 1510 788.4 1485.73 788.8L1441.33 789.6V779.067L1539.73 778C1593.73 777.467 1655.73 776.533 1677.33 776C1720.8 774.933 1722.13 774.933 1729.07 778.267ZM1432 783.867V788.933L1353.07 789.867C1309.6 790.267 1241.07 791.067 1200.67 791.467C1160.4 791.867 1125.2 792.8 1122.4 793.467C1115.87 795.2 1102.93 804 1096 811.467L1090.4 817.6L1036.13 818.533L981.733 819.333L976.4 822.933C972.933 825.2 969.733 828.933 967.467 833.467C964.133 840.133 964 841.467 964 861.6C964 883.733 963.867 884.133 958.133 881.867C955.067 880.667 954.933 839.2 958 832.8C961.733 825.067 967.867 818.933 976.267 814.8L984.4 810.667H1033.07C1080 810.667 1081.87 810.533 1086.13 807.867C1088.67 806.4 1090.67 804.267 1090.67 803.333C1090.67 800.8 1102.13 792.8 1112.8 787.733C1123.87 782.533 1108.27 783.067 1294.67 780.8C1368.4 779.867 1429.47 778.933 1430.4 778.933C1431.47 778.8 1432 780.533 1432 783.867ZM1727.33 801.467C1733.47 806.933 1735.07 809.867 1736 818C1736.67 824.533 1736.8 824.667 1741.87 825.467C1744.8 826 1755.6 825.867 1765.87 825.2C1808.67 822.8 1819.73 823.733 1826.53 830.533C1829.07 833.067 1829.33 834.8 1829.33 853.867V874.4L1804 888.533L1778.53 902.667L1619.33 903.733C1470.67 904.667 1459.87 904.933 1457.6 907.067C1455.47 909.333 1455.47 909.6 1457.87 913.733C1459.2 916.133 1476.8 948.267 1496.93 985.333C1517.07 1022.4 1534.8 1053.73 1536.27 1054.93C1538.8 1057.2 1547.07 1057.33 1668 1057.33C1782.4 1057.33 1797.2 1057.07 1798.67 1055.33C1800 1053.73 1800.13 1049.33 1799.6 1038.13L1798.8 1022.93L1814.13 1022C1822.53 1021.47 1829.73 1021.2 1830 1021.6C1830.27 1021.87 1830.67 1044.53 1830.8 1072L1830.93 1121.87L1827.47 1124.8C1825.33 1126.67 1821.6 1128.13 1817.07 1128.53C1804.93 1129.87 1752 1132.13 1750.67 1131.33C1747.6 1129.47 1742.27 1133.87 1735.6 1144.4C1731.6 1150.53 1727.2 1156 1725.87 1156.53C1722.67 1157.87 1518.67 1160 1151.33 1162.8C1134.27 1162.93 1122 1162.53 1120 1161.6C1115.47 1159.73 1110.27 1153.87 1106.67 1146.67C1104.93 1143.33 1102.93 1140.27 1102.13 1139.73C1101.33 1139.2 1076.4 1138.67 1046.67 1138.67C994.8 1138.67 984.133 1138 980.933 1134.8C979.867 1133.73 979.2 1118.13 978.933 1086.27L978.4 1039.2L1013.73 1030.13C1033.2 1025.2 1050.4 1020.8 1052 1020.4C1054.67 1019.73 1054.67 1020 1054.67 1056.4C1054.67 1091.47 1054.8 1093.33 1057.2 1094.67C1061.07 1096.67 1141.6 1096.53 1143.73 1094.4C1144.8 1093.33 1145.33 1086.67 1145.33 1073.07C1145.33 1054.67 1145.2 1053.33 1142.67 1052C1141.2 1051.2 1139.33 1050.93 1138.67 1051.33C1136.4 1052.8 1127.2 1049.47 1119.47 1044.4C1115.33 1041.6 1112 1039.07 1112 1038.53C1112 1038 1113.47 1037.2 1115.33 1036.8C1117.2 1036.27 1121.07 1033.87 1123.87 1031.2C1130.27 1025.6 1131.47 1019.87 1128.93 1009.33C1126.8 1000.4 1126.93 985.867 1129.2 981.467C1130.4 979.333 1130.67 976.267 1130 972.133C1129.47 968.8 1128.93 962.4 1128.93 958C1128.67 948.933 1125.6 942.8 1117.73 935.867C1113.07 931.867 1112.93 931.6 1115.47 929.733C1117.87 927.867 1124.13 924.8 1136.93 919.333C1140 918 1142.8 916.133 1143.2 915.067C1144.4 912 1141.6 877.067 1140 875.467C1138 873.6 1057.33 874.4 1055.07 876.267C1053.87 877.2 1053.33 881.733 1053.33 890.133C1053.33 899.333 1052.93 902.667 1051.73 902.667C1050.8 902.667 1033.2 898.8 1012.67 894.267L975.333 886L974.933 863.467C974.667 842.667 974.8 840.8 977.467 836.533C981.6 829.733 983.867 829.467 1041.33 829.333C1066.67 829.2 1089.6 828.8 1092.4 828.4C1096.4 827.733 1097.87 826.667 1100.27 822.533C1103.2 817.333 1115.07 807.6 1122 804.667C1125.07 803.467 1148.93 802.8 1218 802.133C1268.67 801.733 1337.73 800.933 1371.73 800.533L1433.33 799.6L1433.47 822.133C1433.6 834.533 1434 850.667 1434.53 858C1435.33 871.067 1435.33 871.333 1438.67 871.333H1442L1441.47 800L1463.73 799.867C1476 799.733 1521.47 799.2 1564.67 798.8C1608 798.267 1661.2 797.733 1682.93 797.6L1722.53 797.333L1727.33 801.467ZM1850.53 1043.07C1850.67 1114.27 1850.4 1127.33 1848.67 1130.53C1846 1136 1835.2 1145.2 1827.33 1148.8C1820.93 1151.87 1819.47 1152 1788.67 1152C1771.07 1152 1756 1152.53 1755.07 1153.07C1754.13 1153.6 1751.07 1157.73 1748.13 1162.27C1744.53 1167.87 1740.4 1172.13 1735.73 1175.2L1728.67 1179.73L1633.73 1181.47C1581.47 1182.4 1538.4 1182.8 1537.87 1182.4C1537.47 1181.87 1536.8 1179.2 1536.4 1176.27L1535.73 1170.93L1565.47 1170.13C1581.87 1169.6 1624.8 1169.2 1660.8 1168.93L1726.13 1168.67L1731.2 1165.33C1735.33 1162.53 1738.8 1158.27 1747.33 1144.93C1748.4 1143.2 1754.67 1142.67 1784 1141.33C1803.47 1140.53 1821.73 1139.2 1824.67 1138.4C1837.73 1135.07 1845.47 1122.27 1842.8 1108.53C1842.13 1104.93 1841.2 1051.73 1840.8 990.4L1840.13 878.8L1844.4 876.267L1848.67 873.867L1849.47 916.533C1849.87 940.133 1850.4 997.067 1850.53 1043.07ZM1132.27 896C1132.27 901.867 1132.4 907.333 1132.53 908.133C1132.67 908.933 1129.07 910.933 1124.67 912.533C1109.07 918.133 1097.47 928.667 1088.93 945.067C1081.2 959.867 1077.6 979.2 1079.73 995.733L1080.8 1004L1075.47 1005.47C1072.4 1006.13 1069.07 1007.07 1067.87 1007.47C1066 1008 1065.6 1003.33 1064.93 961.733C1064.53 936.133 1064.4 915.2 1064.4 915.067C1064.53 914.933 1069.2 915.867 1074.8 917.067C1085.07 919.2 1089.33 918.8 1089.33 915.733C1089.33 912 1086.8 910.667 1076 908.267L1064.67 905.867L1063.87 885.333H1132L1132.27 896ZM1829.33 912V938.667H1799.07L1798.27 922.933C1797.87 914.4 1797.2 906.4 1796.8 905.333C1796.13 903.733 1799.87 901.067 1811.6 894.4C1820.27 889.467 1827.73 885.467 1828.4 885.467C1828.93 885.333 1829.33 897.333 1829.33 912ZM964.267 893.733C964.8 894.667 965.333 906.133 965.333 919.333C965.333 932.533 965.733 963.467 966.267 988.133L967.067 1032.93L963.333 1033.87C961.333 1034.4 959.2 1034.27 958.533 1033.73C958 1033.2 957.333 1000.67 957.067 961.6L956.667 890.533L960 891.333C961.867 891.867 963.733 892.933 964.267 893.733ZM1016 904C1036.13 908.533 1052.67 912.267 1052.8 912.4C1052.93 912.533 1053.33 934.667 1053.87 961.6L1054.8 1010.53L1050.4 1011.73C1022.8 1019.07 978.667 1029.87 978.267 1029.33C977.867 1028.93 977.2 998.533 976.667 961.6C975.867 904.933 976 894.667 977.467 895.2C978.533 895.6 995.867 899.467 1016 904ZM1759.33 913.067C1758.53 913.733 1740.27 924 1718.67 935.867C1697.07 947.867 1678.67 958.533 1677.73 959.6C1675.87 962 1676.67 964.8 1679.6 965.867C1680.8 966.4 1701.47 955.733 1730.8 939.333C1762.53 921.733 1781.33 912 1783.73 912H1787.6L1788.4 930.267C1788.93 940.267 1789.33 970.8 1789.33 998.267V1048H1677.6C1616 1048 1560.27 1047.6 1553.47 1047.07L1541.33 1046.27L1537.33 1038.93C1535.07 1034.8 1533.33 1031.07 1533.33 1030.53C1533.33 1030 1536.13 1029.33 1539.6 1029.07C1544.67 1028.8 1546.27 1028 1547.73 1025.33C1549.6 1022.13 1548.67 1020.13 1529.33 984.667C1518.13 964.133 1508.8 947.067 1508.53 946.667C1508.13 946.4 1503.6 946.267 1498.27 946.4C1490.27 946.8 1488.13 946.4 1486.53 944.4C1483.07 940.533 1470.27 915.867 1471.2 915.067C1471.6 914.533 1529.73 913.867 1600.4 913.333C1670.93 912.8 1735.87 912.4 1744.67 912.267C1753.33 912.133 1760 912.533 1759.33 913.067ZM1114.53 946.4C1115.6 948.4 1115.07 948.667 1110 948.267C1105.47 947.867 1103.73 948.4 1101.47 950.8C1097.33 955.2 1097.6 964.4 1101.87 968.667L1105.07 971.867L1101.87 974C1099.33 975.6 1098.67 977.2 1098.67 981.333C1098.67 987.867 1102.4 990.8 1111.47 991.333C1119.73 991.867 1120.13 992.8 1112.27 993.6C1108.67 994 1104.13 995.467 1101.87 997.067C1099.73 998.533 1096.53 1000 1094.67 1000.27L1091.33 1000.67V984C1091.47 965.467 1093.47 957.467 1101.47 945.2L1105.6 938.667L1109.47 941.467C1111.6 942.933 1113.87 945.2 1114.53 946.4ZM1920 979.333V1012H1909.73C1904 1012 1890.8 1012.4 1880.4 1012.93L1861.33 1013.73V948L1889.73 947.6C1905.2 947.467 1918.4 947.2 1919.07 946.933C1919.6 946.8 1920 961.333 1920 979.333ZM1829.6 955.333C1830 958.933 1830.53 973.2 1830.53 986.933L1830.67 1012H1821.73C1816.67 1012 1809.47 1012.4 1805.73 1012.8L1798.67 1013.73V947.867L1828.67 948.667L1829.6 955.333ZM1112.67 959.067C1114.4 960.4 1114.67 961.2 1113.47 961.867C1111.2 963.333 1108 961.867 1108 959.333C1108 956.8 1109.47 956.8 1112.67 959.067ZM1121.33 974.933C1121.33 977.867 1119.6 978 1117.33 975.333C1116.4 974.267 1114.67 973.333 1113.47 973.2C1112.27 973.2 1113.07 972.4 1115.33 971.333C1119.6 969.467 1121.33 970.4 1121.33 974.933ZM1102 1010.27C1103.87 1012.67 1111.87 1013.47 1116.93 1011.6C1119.47 1010.67 1120 1011.07 1120.67 1015.07C1121.2 1017.73 1120.93 1020.93 1120.13 1022.53C1118.13 1026.13 1111.87 1029.33 1106.8 1029.33C1103.33 1029.33 1102.4 1028.4 1098.8 1021.07C1094.27 1012.13 1093.87 1009.87 1096.4 1008.93C1099.33 1007.73 1100.4 1008 1102 1010.27ZM1087.87 1023.47C1095.73 1040.53 1111.2 1055.07 1127.73 1060.8L1134.67 1063.33V1070.13C1134.67 1073.87 1134.27 1078.93 1133.87 1081.2L1133.07 1085.33H1065.33L1065.6 1051.07L1066 1016.8L1072 1015.2C1082.67 1012.4 1082.93 1012.4 1087.87 1023.47ZM966.8 1042.93C966.933 1043.2 967.467 1063.47 968 1088C969.067 1140 969.2 1140.93 979.6 1145.73C985.733 1148.53 988 1148.67 1041.07 1149.33C1087.87 1149.87 1096.27 1150.27 1097.33 1152C1098 1153.07 1098.67 1154.4 1098.67 1154.8C1098.67 1155.33 1101.33 1158.8 1104.67 1162.4C1115.6 1174.53 1106.53 1173.87 1247.6 1172.8L1370.67 1171.87L1365.87 1184.67L1243.73 1185.07C1122.67 1185.33 1121.33 1185.33 1114 1182.53C1104.8 1179.07 1099.73 1174.93 1093.87 1165.73L1089.33 1158.53L1082.93 1159.2C1079.47 1159.6 1058.13 1160.27 1035.33 1160.67C987.867 1161.6 985.6 1161.2 972.133 1151.33C958 1140.93 958.667 1143.87 958.667 1090.4C958.667 1047.47 958.8 1044.13 961.067 1043.6C963.867 1042.8 966.667 1042.53 966.8 1042.93ZM2438.8 1215.33C2440.8 1342.93 2441.2 1334.93 2430.53 1356.67C2410.67 1397.47 2361.6 1436.53 2316.67 1447.47L2302 1451.07L1980.8 1449.2L1961.73 1439.2C1951.07 1433.6 1942.67 1428.8 1942.93 1428.67C1943.2 1428.4 2016.27 1428.67 2105.33 1429.07C2194.4 1429.6 2267.6 1429.6 2268 1429.07C2268.67 1428.27 2272.13 1427.2 2283.73 1424.4C2285.33 1424 2286.67 1423.2 2286.67 1422.67C2286.67 1422.13 2289.33 1420.93 2292.67 1420C2296 1419.07 2298.67 1417.73 2298.67 1417.07C2298.67 1416.4 2299.33 1416.27 2300 1416.67C2300.8 1417.07 2301.33 1416.93 2301.33 1416.27C2301.33 1415.6 2303.73 1414.4 2306.67 1413.47C2309.6 1412.67 2312 1411.47 2312 1410.93C2312 1410.4 2314.4 1408.8 2317.33 1407.47C2320.27 1406 2322.67 1404.4 2322.67 1403.87C2322.67 1403.33 2323.73 1402.53 2325.07 1402.13C2326.27 1401.73 2329.47 1399.6 2332 1397.33C2334.53 1395.2 2337.2 1393.33 2337.73 1393.33C2338.27 1393.33 2341.73 1390.27 2345.33 1386.67C2348.93 1382.93 2352.53 1380 2353.33 1380C2354 1380 2354.67 1379.33 2354.67 1378.53C2354.67 1377.73 2357.47 1374.13 2361.07 1370.67C2364.53 1367.07 2368.53 1362.53 2370 1360.53C2371.47 1358.67 2373.6 1356 2374.67 1354.8C2375.87 1353.6 2377.87 1350.27 2379.2 1347.33C2380.67 1344.4 2382.53 1341.2 2383.6 1340.27C2384.53 1339.33 2385.33 1337.73 2385.33 1336.8C2385.33 1335.87 2386.53 1333.73 2387.87 1332.13C2393.47 1325.73 2394 1316 2393.6 1234.93L2393.07 1158.67L2415.6 1158.93L2438 1159.33L2438.8 1215.33ZM494.667 1240.27C495.6 1317.33 496.267 1326.67 500.533 1326.67C501.6 1326.67 502.8 1328.8 503.2 1331.33C503.733 1333.87 504.933 1336.67 505.867 1337.6C506.8 1338.53 508.667 1342.13 510 1345.73C511.333 1349.2 512.8 1352 513.333 1352C513.867 1352 515.067 1354.4 516 1357.33C516.933 1360.27 518.267 1362.67 518.8 1362.67C519.333 1362.67 520.933 1364.93 522.133 1367.6C523.467 1370.4 525.333 1373.2 526.267 1373.73C527.2 1374.27 528 1375.6 528 1376.53C528 1377.6 531.067 1381.6 534.667 1385.47C538.4 1389.33 541.333 1393.07 541.333 1393.6C541.333 1395.2 552.933 1406.4 555.6 1407.2C556.933 1407.6 559.2 1409.73 560.667 1412C562.133 1414.13 564.8 1416.53 566.667 1417.33C570.267 1418.67 745.2 1421.2 941.867 1422.53L1057.87 1423.33L1028.53 1435.73L999.333 1448H539.733L530 1440C499.867 1415.33 471.333 1370.13 463.467 1334.67C462 1328 461.333 1308.27 460.667 1248.67L459.733 1171.33L476.133 1167.2C485.2 1164.93 492.933 1163.33 493.2 1163.6C493.467 1163.73 494.133 1198.27 494.667 1240.27ZM1555.33 1262.93C1555.87 1265.6 1574.67 1405.6 1574.67 1407.33C1574.67 1407.73 1572.67 1408 1570.13 1408C1565.73 1408 1565.47 1407.73 1564.67 1402.27C1564.27 1399.2 1560.4 1367.33 1556 1331.33C1551.47 1295.47 1547.47 1265.6 1546.8 1264.93C1545.07 1263.2 1355.6 1269.33 1353.87 1271.07C1353.07 1272 1349.33 1295.73 1345.47 1324C1341.6 1352.27 1337.73 1380.67 1336.67 1387.33C1335.6 1393.87 1334.4 1402.13 1334 1405.6C1333.2 1411.2 1332.8 1412 1329.87 1412C1328.13 1412 1326.67 1411.6 1326.67 1410.93C1326.67 1410.4 1330.93 1377.2 1336 1336.93C1341.2 1296.8 1345.33 1263.07 1345.33 1262C1345.33 1260.27 1358.27 1260 1450 1260H1554.67L1555.33 1262.93ZM1544.53 1316.93C1547.47 1340.53 1549.6 1360.13 1549.2 1360.53C1548.53 1361.07 1351.6 1358.53 1350.93 1358C1350.4 1357.6 1361.07 1279.73 1361.6 1279.2C1362.13 1278.8 1527.47 1273.6 1534 1273.87L1539.33 1274L1544.53 1316.93ZM1322.53 1366.53L1316.8 1412H1285.07C1257.73 1412 1253.33 1412.27 1253.33 1414C1253.33 1415.73 1247.07 1416 1204.4 1415.87C1177.33 1415.73 1143.6 1415.33 1129.2 1414.8L1102.93 1414L1199.6 1373.33C1309.2 1327.2 1327.07 1319.87 1327.73 1320.67C1328 1320.93 1325.73 1341.6 1322.53 1366.53ZM1511.07 1370.13C1543.73 1370.8 1551.07 1371.33 1551.6 1372.93C1552 1373.87 1552 1375.07 1551.73 1375.33C1550.93 1376.13 1349.2 1373.6 1348.4 1372.93C1348.13 1372.67 1348.4 1371.33 1348.8 1370C1349.73 1367.87 1353.2 1367.73 1410.53 1368.53C1444 1368.93 1489.2 1369.73 1511.07 1370.13ZM1485.73 1384.8C1550.67 1385.6 1553.33 1385.73 1553.33 1388.13C1553.33 1390.53 1551.87 1390.67 1524.27 1390.67C1508.27 1390.67 1461.73 1390.27 1420.93 1389.73L1346.67 1388.93V1382.93L1382.4 1383.47C1402 1383.73 1448.4 1384.4 1485.73 1384.8ZM1398.4 1401.33C1396.53 1404.27 1395.2 1404.67 1394 1402.67C1392.67 1400.67 1388 1401.07 1387.07 1403.33C1386.67 1404.53 1387.33 1406.53 1388.53 1407.87C1389.73 1409.2 1390.67 1410.67 1390.67 1411.07C1390.67 1411.6 1379.87 1412 1366.8 1412H1342.8L1343.47 1406.93C1343.87 1404.27 1344.4 1401.2 1344.8 1400.27C1345.07 1399.07 1351.87 1398.67 1372.67 1398.67C1399.73 1398.67 1400 1398.67 1398.4 1401.33ZM1415.33 1400C1418 1401.2 1417.6 1401.47 1412.67 1401.87C1410.53 1402 1410 1402.93 1410 1406.67C1409.87 1413.6 1408.27 1415.33 1405.33 1411.73C1403.2 1408.93 1403.07 1408.4 1404.93 1406.4C1406.13 1405.07 1406.53 1403.07 1406 1401.47C1405.33 1399.07 1405.73 1398.67 1408.93 1398.8C1410.93 1398.8 1413.87 1399.33 1415.33 1400ZM1439.6 1402.27C1437.87 1404 1437.07 1404.13 1435.73 1402.93C1431.6 1398.8 1426.67 1402.93 1429.47 1408.13C1430.53 1410.13 1430.4 1411.33 1429.2 1412.8C1427.87 1414.53 1427.2 1414.4 1424.53 1411.87C1421.6 1409.2 1421.6 1408.93 1423.73 1404.53C1425.87 1400.27 1426.27 1400 1434 1400C1441.47 1400 1441.73 1400.13 1439.6 1402.27ZM1461.33 1402C1460.13 1403.47 1459.2 1403.73 1458.13 1402.67C1457.47 1402 1455.47 1401.33 1453.73 1401.33C1451.47 1401.33 1450.67 1402.13 1450.67 1404.4C1450.67 1406.13 1451.07 1408 1451.6 1408.53C1452.13 1409.07 1452.67 1411.6 1452.67 1414.13C1452.67 1418.13 1452.27 1418.67 1449.07 1418.67C1446.13 1418.67 1445.73 1418.13 1446.27 1415.87C1446.67 1414.27 1446.27 1412.53 1445.33 1412C1444 1411.2 1444.27 1410 1446.53 1406.93C1448 1404.67 1449.33 1402.27 1449.33 1401.47C1449.33 1400.53 1452.13 1400 1456.13 1400C1462.13 1400 1462.8 1400.27 1461.33 1402ZM1475.33 1401.33C1474.8 1402.13 1475.33 1404.4 1476.4 1406.53C1477.73 1409.07 1477.87 1411.07 1477.07 1412.53C1476.4 1413.87 1476.13 1415.73 1476.53 1416.8C1477.07 1418.13 1476.13 1418.67 1472.8 1418.67C1468.93 1418.67 1468.4 1418.27 1468.93 1416C1469.33 1414.4 1468.67 1412.13 1467.47 1410.8C1465.47 1408.67 1465.47 1408.27 1468 1406C1469.47 1404.67 1470.67 1402.8 1470.67 1401.73C1470.67 1400.8 1471.87 1400 1473.47 1400C1474.93 1400 1475.73 1400.67 1475.33 1401.33ZM1487.33 1402.67C1485.47 1404.8 1484.67 1404.93 1483.73 1403.73C1482 1400.8 1482.53 1400 1486.27 1400C1489.73 1400 1489.73 1400 1487.33 1402.67ZM1514.67 1401.07C1514.67 1401.73 1513.73 1403.33 1512.67 1404.8C1510.8 1407.33 1510.8 1407.33 1508.67 1404.27C1505.6 1400 1501.33 1400.4 1501.33 1404.93C1501.33 1407.07 1502.27 1409.73 1503.33 1411.2C1506.13 1414.8 1503.2 1418.67 1497.73 1418.67C1494.27 1418.67 1493.33 1418.13 1493.33 1416.13C1493.33 1414.67 1492.53 1413.33 1491.73 1413.07C1490.67 1412.67 1492.13 1410.13 1495.33 1406.27C1500.4 1400.4 1501.07 1400.13 1507.73 1400C1511.47 1400 1514.67 1400.53 1514.67 1401.07ZM1555.2 1403.47C1555.73 1405.47 1555.87 1407.2 1555.6 1407.47C1555.33 1407.73 1547.47 1408.4 1538.27 1408.93L1521.33 1409.73V1414.53C1521.33 1419.2 1521.33 1419.2 1519.33 1416.27C1517.47 1413.73 1517.47 1413.07 1519.33 1409.47C1520.4 1407.2 1521.33 1404.27 1521.33 1402.67C1521.33 1400.13 1522.13 1400 1537.87 1400H1554.4L1555.2 1403.47ZM1399.33 1417.33C1399.73 1418 1398.93 1418.67 1397.33 1418.67C1395.73 1418.67 1394.93 1418 1395.33 1417.33C1395.73 1416.53 1396.67 1416 1397.33 1416C1398 1416 1398.93 1416.53 1399.33 1417.33ZM1418.67 1417.33C1418.67 1418 1418.13 1418.67 1417.33 1418.67C1416.67 1418.67 1416 1418 1416 1417.33C1416 1416.53 1416.67 1416 1417.33 1416C1418.13 1416 1418.67 1416.53 1418.67 1417.33ZM1438 1417.33C1438.4 1418 1438.13 1418.67 1437.47 1418.67C1436.67 1418.67 1436 1418 1436 1417.33C1436 1416.53 1436.27 1416 1436.53 1416C1436.93 1416 1437.6 1416.53 1438 1417.33ZM1462.67 1417.33C1464.27 1418.4 1463.87 1418.67 1460.93 1418.67C1458.8 1418.67 1457.47 1418.13 1458 1417.33C1459.07 1415.73 1460.13 1415.73 1462.67 1417.33ZM1254 1425.2C1255.33 1426.53 1353.2 1426.8 1420 1425.73L1454 1425.2L1446.67 1429.73C1442.67 1432.13 1433.87 1437.2 1427.33 1441.07L1415.2 1448L1023.6 1447.33L1050.8 1435.73L1078 1424.27L1165.33 1424.13C1218.4 1424 1253.33 1424.53 1254 1425.2ZM1582.27 1436.8C1590.67 1442.67 1597.87 1447.73 1598.27 1448.27C1598.93 1449.47 1486.67 1449.33 1455.33 1448.13L1434.13 1447.33L1451.07 1437.47C1460.4 1432 1468.4 1427.07 1468.93 1426.27C1469.47 1425.47 1486.67 1425.2 1518.27 1425.6L1566.93 1426.4L1582.27 1436.8ZM1940.93 1438.13C1951.47 1443.73 1960 1448.4 1960 1448.8C1960 1449.07 1882.4 1449.33 1787.73 1449.33L1615.33 1449.2L1599.33 1437.87L1583.33 1426.4L1922 1428.13L1940.93 1438.13ZM1303.33 1459.6C1304.13 1461.73 1304.53 1473.87 1304.27 1488.27L1303.73 1513.2L1291.07 1520.67C1284 1524.8 1277.87 1528.27 1277.33 1528.4C1276.67 1528.53 1274.53 1526.4 1272.4 1523.73C1270.4 1521.07 1258.13 1505.47 1245.33 1489.07C1232.4 1472.67 1221.47 1458.53 1220.8 1457.6C1220 1456.4 1228.4 1456 1260.93 1456H1302.13L1303.33 1459.6ZM1398.67 1456.93C1398.53 1458.13 1319.6 1504.4 1316.4 1505.2C1314.53 1505.6 1314.4 1504.53 1315.07 1497.33C1315.6 1492.67 1316 1481.47 1316 1472.53V1456H1357.33C1380.13 1456 1398.67 1456.4 1398.67 1456.93ZM1611.6 1457.73C1612.13 1458.4 1612.8 1555.47 1613.07 1673.47L1613.47 1888L1588.4 1888.13C1574.67 1888.27 1544.4 1888.67 1521.33 1889.2C1481.87 1890 1479.33 1890.13 1478.93 1892.53C1478.67 1893.87 1479.07 1895.6 1479.73 1896.27C1480.67 1897.2 1504 1897.6 1547.2 1897.47L1613.2 1897.2L1613.6 1936.67C1614 1970 1614.27 1976.27 1616 1977.33C1618.53 1978.93 1620.13 1978.93 1622.67 1977.33C1624.4 1976.27 1624.67 1970.53 1624.27 1936.93L1623.87 1897.73L1626.93 1896.8C1628.67 1896.4 1636.67 1896 1644.8 1896H1659.6L1660.67 1938.13C1661.2 1961.2 1661.33 1980.53 1660.93 1980.8C1660.27 1981.47 1313.07 1978.8 1312.4 1978.13C1312.13 1977.87 1312.67 1874.4 1313.47 1747.87C1314.53 1581.87 1315.47 1517.6 1316.53 1516.53C1318.8 1514.13 1416.4 1457.73 1419.33 1456.93C1423.87 1455.87 1610.4 1456.67 1611.6 1457.73ZM1688.53 1457.2C1689.73 1459.07 1674.67 1489.6 1672.93 1488.93C1670 1487.87 1628.67 1458.53 1628.27 1457.2C1627.6 1455.6 1687.6 1455.6 1688.53 1457.2ZM1648.4 1483.2C1659.87 1491.2 1669.33 1498.4 1669.33 1498.93C1669.33 1499.6 1666.67 1505.33 1663.33 1511.87L1657.47 1523.73L1658.67 1668.27C1659.33 1747.6 1660 1829.6 1660 1850.4V1888.13L1624.67 1887.33L1624.27 1676.93C1624 1508.67 1624.27 1466.67 1625.6 1467.47C1626.53 1468 1636.8 1475.07 1648.4 1483.2ZM1303.47 1650.27C1303.07 1719.87 1302.27 1822.13 1301.73 1877.6L1300.93 1978.67H1276L1276.67 1539.47L1289.33 1531.87C1296.27 1527.6 1302.53 1524.13 1303.2 1524.13C1303.87 1524 1304 1575.73 1303.47 1650.27Z" fill="black"/>
<path d="M2061.33 426.267C2011.07 427.2 1891.6 429.467 1795.73 431.2C1663.33 433.6 1620.93 434.667 1619.33 436C1617.2 437.733 1617.07 432.267 1620.67 534.667C1621.73 565.067 1622.67 597.2 1622.67 606.133C1622.67 626.267 1623.33 627.333 1634.27 627.2C1638.53 627.067 1731.73 624.267 1841.33 620.8C1950.93 617.333 2075.33 613.467 2117.6 612.267C2181.87 610.267 2194.93 609.6 2196.67 608C2198.4 606.267 2198.4 595.333 2197.2 518C2196.53 469.6 2195.33 428.667 2194.67 426.933C2193.2 423.467 2199.73 423.467 2061.33 426.267ZM2187.2 503.6C2187.6 542.4 2188.27 579.867 2188.67 586.933L2189.33 599.867L2183.73 600.533C2180.53 600.933 2064.67 604.533 1926 608.667C1787.47 612.8 1665.6 616.4 1655.2 616.8C1641.6 617.2 1635.87 616.8 1634.4 615.6C1632.67 614.267 1632 602.667 1630.13 534C1628.93 490 1627.6 451.867 1627.2 449.2L1626.53 444.267L1653.6 443.467C1668.53 442.933 1782.67 440.8 1907.33 438.667C2141.6 434.533 2162.67 434.133 2177.47 433.6L2186.4 433.333L2187.2 503.6Z" fill="black"/>
<path d="M1872.13 487.867C1867.6 489.067 1866.93 492 1871.2 492H1874.67V515.867L1871.07 516.267C1868.8 516.533 1867.2 517.6 1866.93 518.933C1866.53 521.067 1867.73 521.333 1877.2 521.333C1887.07 521.333 1888 521.067 1888 518.667C1888 516.533 1887.07 516 1884 516H1880V501.333C1880 485.333 1880.13 485.6 1872.13 487.867Z" fill="black"/>
<path d="M1896.67 490C1894.8 491.733 1893.33 494.4 1893.33 496C1893.33 499.733 1897.73 499.467 1899.33 495.6C1901.07 491.733 1907.33 490.933 1909.07 494.267C1910.93 497.867 1909.07 501.2 1900.8 509.333C1890 519.733 1890.53 521.333 1904.67 521.333C1915.07 521.333 1916 521.067 1916 518.667C1916 516.267 1915.07 516 1908.53 516H1901.2L1908.27 509.467C1914.67 503.6 1915.33 502.533 1915.33 497.333C1915.33 493.067 1914.53 491.067 1912.13 489.2C1907.73 485.6 1900.67 485.867 1896.67 490Z" fill="black"/>
<path d="M2029.73 785.467C2024.13 787.067 2023.87 790.667 2029.33 790.667H2033.33V817.333H2029.33C2026.27 817.333 2025.33 817.867 2025.33 820C2025.33 822.4 2026.27 822.667 2036.67 822.667C2047.07 822.667 2048 822.4 2048 820C2048 817.867 2047.07 817.333 2044 817.333H2040V800.667C2040 782 2040.27 782.4 2029.73 785.467Z" fill="black"/>
<path d="M2059.33 787.333C2057.47 789.067 2056 791.467 2056 792.667C2056 795.467 2060.27 795.2 2063.07 792C2065.73 788.8 2069.73 788.533 2072.53 791.467C2075.07 793.867 2075.07 794.133 2073.33 797.467C2072.4 799.067 2070.53 800 2068 800C2064.93 800 2064 800.533 2064 802.667C2064 804.667 2064.93 805.333 2067.2 805.333C2073.2 805.333 2076.8 812 2073.07 815.733C2070.53 818.267 2064.27 817.6 2062.4 814.667C2060.93 812.267 2054.67 810.8 2054.67 812.8C2054.67 814.4 2057.87 819.467 2059.87 820.933C2063.2 823.6 2072.53 823.067 2076.4 820C2081.87 815.733 2082.13 807.2 2076.93 803.733C2076.13 803.2 2076.4 802.133 2077.73 800.667C2079.07 799.467 2080 796.4 2080 794C2080 784.8 2066.27 780.267 2059.33 787.333Z" fill="black"/>
<path d="M1953.73 891.6C1952.4 892.133 1952 910.8 1952 978.8V1065.33H1961.33V979.6C1961.33 886.4 1961.47 888.4 1953.73 891.6Z" fill="black"/>
<path d="M1968.93 891.6C1968.4 892 1968 930.667 1968 977.333C1968 1068 1967.87 1066.27 1974.27 1065.07C1976.53 1064.67 1976.67 1060.27 1977.07 979.467C1977.2 917.6 1976.93 893.733 1975.87 892.533C1974.27 890.533 1970.4 890 1968.93 891.6Z" fill="black"/>
<path d="M1984.93 891.6C1983.87 892.533 1984.67 973.2 1986.13 1034.4L1986.93 1065.47L1991.2 1065.07L1995.33 1064.67L1994.8 994C1994.53 955.067 1993.87 916.133 1993.47 907.333C1992.67 891.467 1992.67 891.333 1989.33 890.933C1987.47 890.667 1985.47 890.933 1984.93 891.6Z" fill="black"/>
<path d="M1999.47 951.467C1999.87 985.067 2000.67 1024.4 2001.2 1038.67L2002 1064.67L2005.73 1065.07C2008.13 1065.33 2009.6 1064.8 2010.13 1063.47C2010.93 1061.47 2008.4 893.2 2007.6 892.4C2007.33 892.267 2005.2 891.6 2002.8 891.2L1998.4 890.267L1999.47 951.467Z" fill="black"/>
<path d="M2013.87 969.467C2014.4 1013.07 2015.07 1052.4 2015.47 1056.93L2016.27 1065.33H2025.6L2024.8 1043.6C2024.4 1031.73 2023.6 992.8 2023.2 956.933C2022.53 910.4 2021.87 892 2020.8 892C2020 892 2017.87 891.6 2016.13 891.067L2012.93 890.267L2013.87 969.467Z" fill="black"/>
<path d="M1936.67 893.467C1935.47 895.2 1936 1021.73 1937.2 1046.67C1937.87 1062.53 1938.27 1064.67 1940.4 1065.07C1946.8 1066.27 1946.67 1068 1945.87 980.133C1945.47 934.933 1944.93 896.667 1944.53 894.933C1944.13 892.933 1942.93 892 1940.67 892C1938.93 892 1937.07 892.667 1936.67 893.467Z" fill="black"/>
<path d="M2028.67 948.933C2029.2 980.267 2030 1019.2 2030.53 1035.33L2031.33 1064.67H2039.33L2038.93 1008.67C2038.67 977.867 2038 939.2 2037.6 922.667L2036.67 892.667L2032.13 892.267L2027.73 891.867L2028.67 948.933Z" fill="black"/>
<path d="M2045.33 1066.67H2054.67V893.6L2045.33 892.533V1066.67Z" fill="black"/>
<path d="M921.333 444.533C810.267 445.333 718.533 446.533 717.733 447.067C715.333 448.533 715.467 458.4 719.067 544.667C720.8 584.933 722.133 620.4 722.133 623.333L722 628.667L1001.33 628.133C1167.33 627.867 1281.6 627.2 1282.93 626.533C1284.27 625.867 1285.6 623.867 1285.87 622.267C1287.07 616.533 1288.8 447.333 1287.73 444.933C1286.67 442.8 1281.47 442.667 1204.93 442.933C1160 443.067 1032.4 443.733 921.333 444.533ZM1278 531.6C1277.6 575.467 1276.8 612.933 1276.53 614.933L1275.73 618.667H1162.27C1099.73 618.667 977.067 619.067 889.467 619.6C742.133 620.4 730.267 620.267 731.067 618.267C731.467 617.067 730.4 580.267 728.533 536.533C726.667 492.8 725.467 456.667 725.867 456.267C726.533 455.6 1078.67 452.667 1218.53 452.267L1278.93 452L1278 531.6Z" fill="black"/>
<path d="M987.6 508.933C984.133 509.867 985.6 512.533 989.867 513.067L993.467 513.467L993.067 524.4C992.667 535.2 992.667 535.333 989.067 535.733C986.933 536 985.333 536.933 985.333 538.133C985.333 539.6 987.6 540 995.333 540C1003.33 540 1005.33 539.6 1005.33 538C1005.33 536.8 1004.13 536 1002 536H998.667V508L994.4 508.133C992 508.267 988.933 508.533 987.6 508.933Z" fill="black"/>
<path d="M1014.27 508.933C1010.8 509.867 1012.27 512.533 1016.53 513.067L1020.13 513.467L1019.73 524.4C1019.33 535.2 1019.33 535.333 1015.73 535.733C1013.6 536 1012 536.933 1012 538.133C1012 539.6 1014.27 540 1022 540C1030 540 1032 539.6 1032 538C1032 536.8 1030.8 536 1028.67 536H1025.33V508L1021.07 508.133C1018.67 508.267 1015.6 508.533 1014.27 508.933Z" fill="black"/>
<path d="M644.4 802.8C641.333 803.733 640 804.933 640 806.667C640 808.8 640.933 809.333 644.667 809.333H649.333V838.533L644.4 838.933C640.267 839.2 639.2 839.867 638.933 842.267C638.533 845.333 638.8 845.333 651.867 845.333H665.333V842C665.333 839.067 664.8 838.667 660.667 838.667H656V801.333L652.4 801.467C650.267 801.467 646.667 802.133 644.4 802.8Z" fill="black"/>
<path d="M679.067 803.333C674.267 806.667 671.6 816 672.267 826.667C673.067 837.333 675.6 842.133 682 844.8C693.2 849.467 702.667 839.6 702.667 823.333C702.667 814.267 699.067 805.067 694.933 802.8C690.933 800.667 682.4 801.067 679.067 803.333ZM692.933 811.467C694.4 813.867 695.2 817.733 695.2 823.333C695.2 833.2 692.4 838.667 687.333 838.667C682.267 838.667 679.333 832.933 679.333 823.333C679.333 817.867 680.133 814 681.733 811.6C684.8 806.8 689.867 806.8 692.933 811.467Z" fill="black"/>
<path d="M2566.67 460.933C2564.4 463.2 2562.67 466.267 2562.4 468.667C2562 472.133 2562.53 472.667 2565.73 473.067C2568.8 473.467 2569.33 473.067 2569.33 470.4C2569.33 466.267 2571.73 464 2576 464C2580.53 464 2582.67 466.267 2582.67 471.2C2582.67 474.533 2580.67 477.2 2572 485.6C2565.73 491.733 2561.33 497.2 2561.33 498.667C2561.33 501.2 2562.27 501.333 2576 501.333H2590.67V498C2590.67 494.8 2590.4 494.667 2582 494.667C2577.2 494.667 2573.33 494.4 2573.33 494.133C2573.33 493.733 2576.53 490.4 2580.53 486.667C2589.73 478 2591.6 473.733 2589.47 466.667C2586.67 457.067 2574.27 454 2566.67 460.933Z" fill="black"/>
<path d="M333.2 1097.47C320.133 1105.2 318.667 1126.13 330.4 1134.53C335.333 1138 343.6 1139.33 348.4 1137.47L352.133 1136L349.733 1140.13C348.4 1142.4 343.867 1148.13 339.6 1152.8L331.733 1161.33L338.933 1161.2C345.867 1161.2 346.133 1161.07 352.267 1153.6C355.733 1149.47 360.533 1142.13 362.933 1137.47C366.8 1129.87 367.333 1127.47 367.333 1118.53C367.333 1107.33 365.733 1103.73 358.267 1098.13C352.8 1094 339.467 1093.73 333.2 1097.47ZM351.6 1106C356.133 1109.2 357.867 1116.13 355.467 1121.73C351.867 1130.4 342.533 1132.13 336.8 1125.2C332 1119.47 332.133 1113.07 337.2 1107.87C341.6 1103.47 347.067 1102.8 351.6 1106Z" fill="black"/>
<path d="M2578.53 1126.53C2573.73 1131.47 2573.47 1134.67 2578 1134.67C2579.87 1134.67 2581.33 1134.13 2581.33 1133.33C2581.33 1132.67 2582.8 1131.07 2584.67 1129.87C2589.6 1126.67 2594.67 1129.07 2594.67 1134.53C2594.67 1138.53 2592.8 1140 2587.2 1140C2584.67 1140 2584 1140.67 2584 1143.33C2584 1146.13 2584.67 1146.67 2587.87 1146.67C2592.13 1146.67 2596 1149.6 2596 1152.8C2596 1155.6 2591.07 1160 2588 1160C2586.4 1160 2583.87 1158.53 2582.13 1156.67C2580.4 1154.8 2577.73 1153.33 2576.27 1153.33C2573.73 1153.33 2573.6 1153.73 2574.93 1157.47C2577.07 1163.6 2581.87 1166 2591.73 1165.47C2593.47 1165.33 2596.67 1163.6 2598.8 1161.47C2603.6 1156.53 2604 1150.53 2599.6 1146.13C2596.67 1143.2 2596.67 1143.07 2599.2 1141.07C2603.2 1138 2602.53 1129.6 2598 1125.73C2592.67 1121.07 2583.6 1121.47 2578.53 1126.53Z" fill="black"/>
<path d="M2198.13 1561.2C2192.53 1569.2 2188 1577.07 2188 1578.53C2188 1581.2 2188.8 1581.33 2198.67 1581.33H2209.33V1586C2209.33 1590.13 2209.73 1590.67 2212.67 1590.67C2215.6 1590.67 2216 1590.13 2216 1586C2216 1582.8 2216.67 1581.33 2218 1581.33C2219.2 1581.33 2220 1580.13 2220 1578C2220 1576 2219.2 1574.67 2218 1574.67C2216.53 1574.67 2216 1572 2215.73 1560.93L2215.33 1547.33L2211.87 1546.93C2208.67 1546.53 2207.2 1548.13 2198.13 1561.2ZM2209.33 1566V1574.67H2196.13L2202.13 1566C2205.47 1561.2 2208.4 1557.33 2208.8 1557.33C2209.07 1557.33 2209.33 1561.2 2209.33 1566Z" fill="black"/>
<path d="M655.333 1555.87C646.133 1560 643.733 1570.93 650.267 1578.67C652.4 1581.2 653.2 1583.2 652.4 1583.73C649.867 1585.47 648 1590.4 648 1595.33C648 1608.67 669.867 1614.27 678.533 1603.07C682.8 1597.87 681.733 1586.93 676.933 1583.73C676.133 1583.2 676.933 1581.2 679.067 1578.67C685.733 1570.8 682.933 1559.33 673.333 1555.47C666.4 1552.67 662 1552.8 655.333 1555.87ZM670.4 1563.47C673.867 1565.87 674.4 1572.13 671.2 1575.2C670.133 1576.4 667.067 1577.33 664.667 1577.33C659.2 1577.33 656 1574.4 656 1569.33C656 1565.07 660.133 1561.33 664.667 1561.33C666.133 1561.33 668.8 1562.27 670.4 1563.47ZM670.933 1588.93C676 1593.47 672.133 1601.33 664.933 1601.33C657.333 1601.33 653.467 1594.4 658.267 1589.07C660.933 1586.13 667.6 1586 670.933 1588.93Z" fill="black"/>
<path d="M1809.6 1573.6C1808.8 1578.27 1807.73 1585.2 1807.33 1588.93L1806.4 1596H1810.4C1812.67 1596 1814.93 1595.33 1815.33 1594.53C1817.07 1591.73 1822.93 1590.53 1826.8 1592C1834.27 1595.2 1834.13 1607.87 1826.67 1610.53C1821.6 1612.27 1816 1610.4 1815.07 1606.67C1814.53 1604.67 1813.2 1604 1809.87 1604C1804.67 1604 1804.27 1605.47 1807.87 1611.47C1810.53 1615.87 1817.87 1620 1822.93 1620C1828.93 1619.87 1836.8 1615.2 1839.07 1610.27C1843.2 1601.6 1841.2 1590.8 1834.4 1586.13C1830.93 1583.6 1819.87 1583.33 1817.6 1585.6C1815.73 1587.47 1815.47 1584.4 1816.8 1577.47L1817.73 1573.33H1838.67V1565.33H1810.93L1809.6 1573.6Z" fill="black"/>
<path d="M1110.27 1568.93C1109.73 1569.33 1109.33 1572.67 1109.33 1576.27V1582.67H1114C1118.13 1582.67 1118.67 1582.27 1118.67 1579.33C1118.67 1576.13 1118.93 1576 1127.33 1576C1132.13 1576 1136 1576.4 1136 1576.8C1136 1577.2 1134.53 1580 1132.8 1583.07C1128.67 1590.4 1123.2 1605.87 1122 1613.73L1121.07 1620H1125.2C1127.47 1620 1129.6 1619.2 1129.87 1618.27C1130.13 1617.47 1131.33 1612.13 1132.67 1606.67C1134.93 1596.8 1139.33 1586.67 1144.13 1579.73C1145.6 1577.87 1146.67 1574.4 1146.67 1572.13V1568H1128.93C1119.07 1568 1110.67 1568.4 1110.27 1568.93Z" fill="black"/>
<path d="M1800.53 1864.27C1786.13 1879.87 1780.93 1895.2 1785.87 1907.2C1789.87 1916.8 1801.87 1920.93 1812.53 1916.13C1817.6 1913.87 1819.2 1912.27 1821.47 1907.2C1826.13 1896.8 1822.93 1887.33 1813.2 1882.27C1810 1880.67 1807.2 1880.13 1803.47 1880.8L1798.13 1881.6L1800.67 1877.87C1802 1875.73 1805.73 1870.8 1809.07 1866.93L1814.93 1860H1809.73C1805.6 1860 1803.73 1860.8 1800.53 1864.27ZM1809.87 1890.8C1812.53 1892.8 1813.33 1894.67 1813.33 1898.53C1813.33 1905.73 1810.27 1909.33 1804.13 1909.33C1795.73 1909.33 1791.2 1901.33 1795.2 1893.6C1798.4 1887.33 1804 1886.27 1809.87 1890.8Z" fill="black"/>
<line x1="1519.75" y1="981.174" x2="1105.75" y2="1254.17" stroke="black" stroke-width="10"/>
<text fill="black" xml:space="preserve" style="white-space: pre" font-family="Inter" font-size="64" font-weight="500" letter-spacing="0em"><tspan x="1013" y="1333.77">14</tspan></text>
</g>
<defs>
<clipPath id="clip0_15_3">
<rect width="2965.33" height="2224" fill="white"/>
</clipPath>
</defs>
</svg>
